<svg id="svg" version="1.1" xmlns="http://www.w3.org/2000/svg" xmlns:xlink="http://www.w3.org/1999/xlink" width="400" height="400" viewBox="0, 0, 400,400"><g id="svgg"><path id="path0" d="M279.833 79.763 C 273.814 80.858,266.644 86.198,264.967 90.837 C 264.939 90.914,263.192 90.611,261.083 90.165 C 258.975 89.719,256.537 89.203,255.667 89.018 C 254.796 88.834,252.808 88.413,251.250 88.083 C 249.692 87.753,247.742 87.340,246.917 87.165 C 246.092 86.990,244.142 86.579,242.583 86.251 C 241.025 85.924,239.450 85.585,239.083 85.498 C 238.717 85.411,236.954 85.033,235.167 84.659 C 231.634 83.919,230.188 83.614,226.500 82.830 C 225.171 82.547,223.221 82.136,222.167 81.917 C 221.112 81.698,219.354 81.327,218.258 81.093 C 212.593 79.882,211.342 80.920,209.834 88.083 C 208.912 92.463,208.442 94.674,208.083 96.333 C 207.692 98.141,207.221 100.372,206.251 105.000 C 205.742 107.429,205.256 109.717,205.170 110.083 C 205.084 110.450,204.857 111.500,204.666 112.417 C 204.474 113.333,204.212 114.571,204.083 115.167 C 203.692 116.974,203.221 119.205,202.251 123.833 C 201.742 126.263,201.256 128.550,201.170 128.917 C 201.084 129.283,200.864 130.296,200.682 131.167 C 200.499 132.037,200.087 133.987,199.765 135.500 C 199.444 137.012,198.762 140.237,198.251 142.667 C 197.739 145.096,197.244 147.421,197.150 147.833 C 197.057 148.246,196.703 149.896,196.365 151.500 L 195.750 154.417 195.250 154.448 C 194.975 154.465,193.250 154.564,191.417 154.668 C 184.893 155.038,176.514 155.987,172.333 156.830 C 171.921 156.913,170.721 157.141,169.667 157.337 C 151.482 160.718,133.970 167.631,119.917 176.977 C 116.210 179.443,116.486 179.329,115.795 178.669 C 106.958 170.216,92.174 168.767,81.373 175.294 C 61.853 187.090,62.814 215.975,83.065 226.113 C 83.717 226.439,84.265 226.719,84.284 226.734 C 84.303 226.750,84.213 227.435,84.084 228.256 C 83.241 233.623,83.502 240.947,84.756 247.108 C 91.472 280.083,126.807 307.012,173.500 314.739 C 193.747 318.089,217.844 317.395,236.417 312.928 C 236.600 312.884,237.725 312.616,238.917 312.332 C 270.335 304.856,296.259 287.442,308.881 265.333 C 315.398 253.918,318.502 237.839,316.249 227.167 C 316.169 226.788,316.280 226.690,317.456 226.089 C 331.372 218.982,337.274 201.662,330.587 187.547 C 322.311 170.075,300.017 165.344,285.267 177.929 L 283.992 179.017 281.288 177.200 C 261.495 163.906,235.559 155.753,208.630 154.359 C 205.809 154.213,205.879 154.245,206.127 153.205 C 206.230 152.772,206.466 151.704,206.650 150.833 C 206.835 149.962,207.323 147.675,207.735 145.750 C 208.148 143.825,208.979 139.925,209.583 137.083 C 210.186 134.242,211.018 130.342,211.431 128.417 C 212.230 124.686,212.393 123.922,213.581 118.333 C 213.999 116.362,214.412 114.450,214.498 114.083 C 214.583 113.717,214.810 112.667,215.001 111.750 C 215.192 110.833,215.455 109.596,215.584 109.000 C 215.862 107.718,216.530 104.601,217.583 99.667 C 218.003 97.696,218.492 95.408,218.668 94.583 C 218.844 93.758,219.038 92.796,219.099 92.445 C 219.245 91.596,219.313 91.586,221.515 92.070 C 222.561 92.299,225.029 92.828,227.000 93.244 C 228.971 93.661,230.883 94.073,231.250 94.161 C 231.617 94.248,232.629 94.470,233.500 94.653 C 235.624 95.100,247.325 97.601,251.500 98.500 C 253.657 98.965,259.943 100.309,261.809 100.705 C 262.299 100.809,262.722 100.974,262.748 101.072 C 262.774 101.170,262.887 101.962,262.999 102.833 C 265.399 121.419,289.938 127.436,300.474 112.021 C 310.888 96.786,297.894 76.480,279.833 79.763 M158.440 200.393 C 173.585 203.721,180.088 221.867,170.398 233.764 C 169.119 235.334,168.957 235.501,167.667 236.578 C 159.670 243.252,148.102 243.171,140.495 236.387 C 128.063 225.302,132.551 205.705,148.667 200.702 C 149.215 200.532,150.626 200.256,151.750 200.099 C 152.841 199.946,157.299 200.142,158.440 200.393 M248.113 200.339 C 267.042 202.839,273.319 226.378,258.095 237.776 C 252.800 241.741,245.862 242.805,239.062 240.696 C 233.424 238.948,227.929 233.341,226.024 227.391 C 221.458 213.136,233.485 198.407,248.113 200.339 M156.571 267.010 C 157.141 267.223,157.886 267.712,158.540 268.301 C 165.763 274.813,175.511 278.274,191.583 280.031 C 194.722 280.374,206.353 280.319,209.750 279.944 C 224.742 278.292,234.739 274.756,241.501 268.714 C 243.257 267.144,244.268 266.667,245.833 266.667 C 249.174 266.667,251.730 269.846,251.013 273.109 C 249.719 279.001,235.066 286.801,220.500 289.352 C 212.970 290.671,207.500 291.162,200.333 291.162 C 179.315 291.162,160.821 285.611,151.472 276.496 C 149.644 274.713,149.267 273.962,149.258 272.083 C 149.240 268.302,153.018 265.680,156.571 267.010 " stroke="none" fill="#fcfbfb" fill-rule="evenodd"></path><path id="path1" d="M188.417 0.193 C 183.114 0.538,180.288 0.816,173.375 1.675 C 171.135 1.953,168.293 2.385,165.083 2.935 C 164.900 2.966,164.412 3.064,164.000 3.151 C 163.587 3.239,162.387 3.470,161.333 3.665 C 160.279 3.860,159.117 4.089,158.750 4.174 C 158.383 4.258,157.490 4.445,156.764 4.588 C 156.039 4.731,155.387 4.883,155.317 4.927 C 155.247 4.970,154.846 5.080,154.428 5.170 C 154.009 5.260,153.310 5.416,152.875 5.516 C 152.440 5.617,151.821 5.760,151.500 5.833 C 150.473 6.069,146.931 7.002,146.500 7.151 C 146.271 7.230,145.746 7.387,145.333 7.500 C 144.921 7.613,144.396 7.763,144.167 7.833 C 143.938 7.904,143.412 8.056,143.000 8.171 C 139.926 9.031,130.623 12.175,128.750 12.987 C 128.567 13.067,126.692 13.822,124.583 14.666 C 122.475 15.511,120.375 16.371,119.917 16.578 C 118.608 17.171,117.468 17.680,116.833 17.955 C 115.805 18.401,106.637 22.964,105.083 23.803 C 102.101 25.414,100.078 26.549,99.833 26.749 C 99.696 26.861,99.171 27.178,98.667 27.452 C 97.022 28.347,96.421 28.697,96.167 28.908 C 96.029 29.022,95.467 29.367,94.917 29.675 C 94.367 29.984,93.842 30.297,93.750 30.371 C 93.658 30.446,93.096 30.819,92.500 31.200 C 91.058 32.124,86.631 35.048,86.418 35.218 C 86.326 35.291,85.537 35.847,84.667 36.451 C 82.931 37.657,80.132 39.688,80.000 39.838 C 79.954 39.890,79.654 40.112,79.333 40.331 C 79.012 40.550,78.517 40.921,78.232 41.156 C 77.568 41.704,77.230 41.969,76.413 42.580 C 76.049 42.853,75.563 43.242,75.333 43.444 C 75.104 43.646,74.642 44.023,74.306 44.281 C 72.767 45.463,69.061 48.559,68.833 48.853 C 68.787 48.912,68.412 49.240,68.000 49.581 C 65.927 51.296,62.301 54.702,58.502 58.502 C 54.702 62.301,51.296 65.927,49.581 68.000 C 49.240 68.412,48.912 68.787,48.853 68.833 C 48.559 69.061,45.463 72.767,44.281 74.306 C 44.023 74.642,43.646 75.104,43.444 75.333 C 43.242 75.563,42.853 76.049,42.580 76.413 C 41.969 77.230,41.704 77.568,41.156 78.232 C 40.921 78.517,40.550 79.012,40.331 79.333 C 40.112 79.654,39.890 79.954,39.838 80.000 C 39.694 80.126,37.692 82.881,36.446 84.667 C 35.838 85.537,35.232 86.400,35.099 86.583 C 34.966 86.767,34.141 88.004,33.266 89.333 C 32.390 90.662,31.597 91.841,31.503 91.951 C 31.410 92.062,31.333 92.198,31.333 92.254 C 31.333 92.310,31.146 92.601,30.917 92.902 C 30.687 93.202,30.500 93.529,30.500 93.627 C 30.500 93.725,30.439 93.831,30.365 93.861 C 30.291 93.892,29.979 94.367,29.673 94.917 C 29.366 95.467,29.022 96.029,28.908 96.167 C 28.697 96.421,28.347 97.022,27.452 98.667 C 27.178 99.171,26.861 99.696,26.749 99.833 C 26.545 100.083,25.330 102.246,23.799 105.083 C 22.958 106.641,18.398 115.810,17.955 116.833 C 17.723 117.370,17.461 117.956,16.540 120.000 C 16.354 120.412,15.511 122.475,14.667 124.583 C 13.823 126.692,13.067 128.567,12.987 128.750 C 12.665 129.492,12.115 130.987,11.728 132.167 C 11.503 132.854,11.250 133.567,11.164 133.750 C 11.030 134.038,10.308 136.210,8.838 140.750 C 8.630 141.392,8.394 142.160,8.313 142.458 C 8.116 143.187,7.847 144.141,7.667 144.750 C 7.585 145.025,7.446 145.512,7.357 145.833 C 7.268 146.154,7.069 146.867,6.915 147.417 C 6.499 148.895,5.998 150.815,5.804 151.667 C 5.711 152.079,5.570 152.679,5.492 153.000 C 5.414 153.321,5.272 153.945,5.178 154.386 C 5.083 154.828,4.970 155.247,4.927 155.317 C 4.883 155.387,4.731 156.039,4.588 156.764 C 4.445 157.490,4.258 158.383,4.174 158.750 C 4.089 159.117,3.860 160.279,3.665 161.333 C 3.470 162.387,3.239 163.587,3.151 164.000 C 3.064 164.412,2.966 164.900,2.935 165.083 C 1.540 173.225,0.758 179.983,0.167 189.000 C -0.052 192.345,-0.052 207.655,0.167 211.000 C 0.758 220.017,1.540 226.775,2.935 234.917 C 2.966 235.100,3.063 235.588,3.150 236.000 C 3.237 236.412,3.394 237.237,3.499 237.833 C 3.603 238.429,3.753 239.217,3.831 239.583 C 3.909 239.950,4.064 240.700,4.174 241.250 C 4.411 242.425,5.107 245.497,5.326 246.333 C 5.410 246.654,5.554 247.254,5.646 247.667 C 5.979 249.164,6.533 251.265,7.338 254.083 C 7.417 254.358,7.560 254.865,7.657 255.208 C 7.754 255.552,7.908 256.096,8.000 256.417 C 8.092 256.737,8.233 257.244,8.313 257.542 C 8.394 257.840,8.630 258.608,8.838 259.250 C 10.280 263.703,11.030 265.962,11.160 266.250 C 11.243 266.433,11.471 267.071,11.667 267.667 C 11.862 268.262,12.084 268.900,12.161 269.083 C 12.237 269.267,12.394 269.679,12.508 270.000 C 12.623 270.321,12.809 270.808,12.922 271.083 C 13.034 271.358,13.818 273.308,14.664 275.417 C 15.509 277.525,16.371 279.625,16.578 280.083 C 17.171 281.392,17.680 282.532,17.955 283.167 C 18.401 284.195,22.964 293.363,23.803 294.917 C 25.414 297.899,26.549 299.922,26.749 300.167 C 26.861 300.304,27.178 300.829,27.452 301.333 C 28.347 302.978,28.697 303.579,28.908 303.833 C 29.022 303.971,29.367 304.533,29.675 305.083 C 29.984 305.633,30.297 306.158,30.371 306.250 C 30.446 306.342,30.795 306.867,31.146 307.417 C 32.117 308.934,35.060 313.394,35.215 313.583 C 35.290 313.675,35.847 314.462,36.451 315.333 C 37.657 317.069,39.688 319.868,39.838 320.000 C 39.890 320.046,40.112 320.346,40.331 320.667 C 40.550 320.987,40.921 321.483,41.156 321.768 C 41.714 322.445,41.980 322.784,42.577 323.587 C 42.849 323.951,43.149 324.332,43.244 324.432 C 43.339 324.532,43.604 324.867,43.833 325.177 C 44.063 325.487,44.516 326.043,44.842 326.412 C 45.168 326.781,45.691 327.421,46.004 327.833 C 46.318 328.246,46.617 328.621,46.669 328.667 C 46.721 328.712,47.242 329.313,47.826 330.000 C 48.409 330.688,48.931 331.287,48.986 331.333 C 49.040 331.379,49.338 331.717,49.648 332.083 C 52.546 335.510,60.020 343.204,63.650 346.500 C 64.509 347.279,65.445 348.142,65.731 348.418 C 66.016 348.694,66.813 349.400,67.500 349.987 C 68.188 350.574,68.787 351.099,68.833 351.154 C 69.097 351.472,72.826 354.583,74.306 355.719 C 74.642 355.977,75.104 356.354,75.333 356.556 C 75.563 356.758,76.049 357.147,76.413 357.420 C 77.230 358.031,77.568 358.296,78.232 358.844 C 78.517 359.079,79.012 359.450,79.333 359.669 C 79.654 359.888,79.954 360.110,80.000 360.162 C 80.132 360.312,82.931 362.343,84.667 363.549 C 85.537 364.153,86.326 364.709,86.419 364.782 C 86.651 364.968,91.173 367.957,92.500 368.803 C 93.096 369.182,93.658 369.554,93.750 369.629 C 93.842 369.703,94.367 370.016,94.917 370.325 C 95.467 370.633,96.029 370.978,96.167 371.092 C 96.403 371.288,96.719 371.474,98.500 372.464 C 98.912 372.693,99.438 373.009,99.667 373.166 C 100.091 373.456,102.374 374.733,105.083 376.197 C 106.637 377.036,115.805 381.599,116.833 382.045 C 117.437 382.307,118.362 382.719,120.083 383.494 C 120.633 383.742,122.733 384.604,124.750 385.410 C 126.767 386.216,128.642 386.967,128.917 387.079 C 129.192 387.191,129.679 387.377,130.000 387.492 C 130.321 387.606,130.733 387.764,130.917 387.841 C 132.012 388.303,141.013 391.274,143.000 391.829 C 143.412 391.944,143.938 392.096,144.167 392.167 C 144.396 392.237,144.921 392.387,145.333 392.500 C 145.746 392.613,146.271 392.770,146.500 392.849 C 147.127 393.065,150.796 394.012,152.333 394.354 C 152.746 394.446,153.346 394.590,153.667 394.674 C 154.503 394.893,157.575 395.589,158.750 395.826 C 159.300 395.936,160.050 396.091,160.417 396.169 C 160.783 396.247,161.571 396.397,162.167 396.501 C 162.762 396.605,163.737 396.794,164.333 396.919 C 165.340 397.131,165.973 397.239,168.708 397.661 C 171.184 398.043,173.865 398.405,176.083 398.656 C 176.908 398.749,178.558 398.937,179.750 399.074 C 185.852 399.774,190.796 400.000,200.000 400.001 C 207.852 400.002,209.854 399.938,215.917 399.490 C 219.673 399.212,226.524 398.397,231.292 397.661 C 234.027 397.239,234.660 397.131,235.667 396.919 C 236.262 396.794,237.237 396.605,237.833 396.501 C 238.429 396.397,239.217 396.247,239.583 396.169 C 239.950 396.091,240.700 395.936,241.250 395.826 C 242.425 395.589,245.497 394.893,246.333 394.674 C 246.654 394.590,247.254 394.446,247.667 394.354 C 249.204 394.012,252.873 393.065,253.500 392.849 C 253.729 392.770,254.254 392.613,254.667 392.500 C 255.079 392.387,255.604 392.237,255.833 392.167 C 256.063 392.096,256.587 391.944,257.000 391.829 C 258.646 391.369,265.701 389.089,266.250 388.840 C 266.433 388.757,267.071 388.529,267.667 388.333 C 268.262 388.138,268.900 387.916,269.083 387.839 C 269.267 387.763,269.679 387.610,270.000 387.499 C 270.321 387.388,270.808 387.198,271.083 387.077 C 271.358 386.956,272.033 386.693,272.583 386.493 C 273.133 386.292,273.901 385.987,274.290 385.814 C 274.678 385.641,275.073 385.500,275.167 385.500 C 275.261 385.500,275.468 385.428,275.627 385.339 C 275.994 385.135,277.185 384.619,278.333 384.167 C 278.823 383.974,279.567 383.660,279.987 383.469 C 282.017 382.547,282.810 382.193,283.495 381.901 C 284.522 381.463,293.079 377.193,294.917 376.201 C 297.497 374.809,299.900 373.462,300.333 373.166 C 300.563 373.009,301.087 372.693,301.500 372.464 C 303.281 371.474,303.597 371.288,303.833 371.092 C 303.971 370.978,304.533 370.634,305.083 370.327 C 305.633 370.021,306.108 369.709,306.139 369.635 C 306.169 369.561,306.275 369.500,306.373 369.500 C 306.471 369.500,306.798 369.313,307.098 369.083 C 307.399 368.854,307.690 368.667,307.746 368.667 C 307.802 368.667,307.938 368.592,308.049 368.500 C 308.159 368.408,309.337 367.615,310.667 366.738 C 311.996 365.860,313.233 365.034,313.417 364.901 C 313.600 364.768,314.462 364.162,315.333 363.554 C 317.119 362.308,319.874 360.306,320.000 360.162 C 320.046 360.110,320.346 359.888,320.667 359.669 C 320.987 359.450,321.483 359.079,321.768 358.844 C 322.445 358.286,322.784 358.020,323.587 357.423 C 323.951 357.151,324.332 356.851,324.432 356.756 C 324.532 356.661,324.862 356.396,325.166 356.167 C 325.470 355.938,326.250 355.311,326.901 354.774 C 327.551 354.237,328.233 353.674,328.417 353.523 C 329.137 352.928,331.255 351.107,331.333 351.014 C 331.379 350.960,331.717 350.662,332.083 350.352 C 336.958 346.229,346.217 336.970,350.353 332.083 C 350.663 331.717,350.997 331.342,351.095 331.250 C 351.193 331.158,351.718 330.558,352.261 329.917 C 352.805 329.275,353.289 328.712,353.338 328.667 C 353.386 328.621,353.682 328.246,353.996 327.833 C 354.309 327.421,354.832 326.781,355.158 326.412 C 355.484 326.043,355.938 325.487,356.167 325.177 C 356.396 324.867,356.661 324.532,356.756 324.432 C 356.851 324.332,357.151 323.951,357.423 323.587 C 358.020 322.784,358.286 322.445,358.844 321.768 C 359.079 321.483,359.450 320.987,359.669 320.667 C 359.888 320.346,360.110 320.046,360.162 320.000 C 360.312 319.868,362.343 317.069,363.549 315.333 C 364.153 314.462,364.709 313.674,364.782 313.581 C 364.968 313.349,367.957 308.827,368.803 307.500 C 369.182 306.904,369.554 306.342,369.629 306.250 C 369.703 306.158,370.016 305.633,370.325 305.083 C 370.633 304.533,370.978 303.971,371.092 303.833 C 371.288 303.597,371.474 303.281,372.464 301.500 C 372.693 301.087,373.009 300.563,373.166 300.333 C 373.456 299.909,374.733 297.626,376.197 294.917 C 377.036 293.363,381.599 284.195,382.045 283.167 C 382.307 282.563,382.719 281.638,383.494 279.917 C 383.742 279.367,384.604 277.267,385.410 275.250 C 386.216 273.233,386.967 271.358,387.079 271.083 C 387.191 270.808,387.377 270.321,387.492 270.000 C 387.606 269.679,387.763 269.267,387.839 269.083 C 387.916 268.900,388.138 268.262,388.333 267.667 C 388.529 267.071,388.757 266.433,388.840 266.250 C 389.089 265.701,391.369 258.646,391.829 257.000 C 391.944 256.587,392.096 256.063,392.167 255.833 C 392.237 255.604,392.387 255.079,392.500 254.667 C 392.613 254.254,392.770 253.729,392.849 253.500 C 393.065 252.873,394.012 249.204,394.354 247.667 C 394.446 247.254,394.590 246.654,394.674 246.333 C 394.893 245.497,395.589 242.425,395.826 241.250 C 395.936 240.700,396.091 239.950,396.169 239.583 C 396.247 239.217,396.397 238.429,396.501 237.833 C 396.605 237.237,396.794 236.262,396.919 235.667 C 397.131 234.660,397.239 234.027,397.661 231.292 C 398.043 228.816,398.405 226.135,398.656 223.917 C 398.749 223.092,398.937 221.442,399.074 220.250 C 399.774 214.145,400.000 209.203,400.000 200.000 C 400.000 190.797,399.774 185.855,399.074 179.750 C 398.937 178.558,398.749 176.908,398.656 176.083 C 398.405 173.865,398.043 171.184,397.661 168.708 C 397.239 165.973,397.131 165.340,396.919 164.333 C 396.794 163.737,396.605 162.762,396.501 162.167 C 396.397 161.571,396.247 160.783,396.169 160.417 C 396.091 160.050,395.936 159.300,395.826 158.750 C 395.589 157.575,394.893 154.503,394.674 153.667 C 394.590 153.346,394.446 152.746,394.354 152.333 C 394.012 150.796,393.065 147.127,392.849 146.500 C 392.770 146.271,392.613 145.746,392.500 145.333 C 392.387 144.921,392.237 144.396,392.167 144.167 C 392.096 143.938,391.944 143.412,391.829 143.000 C 391.354 141.302,389.081 134.276,388.836 133.750 C 388.750 133.567,388.497 132.854,388.272 132.167 C 387.888 130.994,387.341 129.508,387.014 128.750 C 386.934 128.567,386.212 126.767,385.407 124.750 C 384.603 122.733,383.742 120.633,383.495 120.083 C 383.247 119.533,382.859 118.671,382.632 118.167 C 382.404 117.662,382.076 116.915,381.901 116.505 C 381.462 115.476,377.192 106.919,376.201 105.083 C 374.809 102.503,373.462 100.100,373.166 99.667 C 373.009 99.438,372.693 98.912,372.464 98.500 C 371.474 96.719,371.288 96.403,371.092 96.167 C 370.978 96.029,370.633 95.467,370.325 94.917 C 370.016 94.367,369.704 93.842,369.630 93.750 C 369.379 93.439,368.667 92.319,368.667 92.236 C 368.667 92.190,368.592 92.062,368.500 91.951 C 368.408 91.841,367.615 90.662,366.738 89.333 C 365.860 88.004,365.034 86.767,364.901 86.583 C 364.768 86.400,364.162 85.537,363.554 84.667 C 362.308 82.881,360.306 80.126,360.162 80.000 C 360.110 79.954,359.888 79.654,359.669 79.333 C 359.450 79.012,359.079 78.517,358.844 78.232 C 358.275 77.542,358.010 77.203,357.425 76.413 C 357.155 76.049,356.885 75.712,356.825 75.667 C 356.766 75.621,356.424 75.202,356.067 74.736 C 355.269 73.696,353.468 71.447,353.342 71.333 C 353.292 71.287,352.801 70.725,352.252 70.083 C 351.704 69.442,351.206 68.879,351.147 68.833 C 351.088 68.787,350.760 68.412,350.419 68.000 C 346.754 63.571,336.998 53.806,332.083 49.647 C 331.717 49.337,331.342 49.003,331.250 48.905 C 331.092 48.737,329.402 47.284,328.500 46.542 C 325.598 44.154,324.425 43.209,323.587 42.581 C 322.766 41.966,322.428 41.701,321.768 41.156 C 321.483 40.921,320.987 40.550,320.667 40.331 C 320.346 40.112,320.046 39.890,320.000 39.838 C 319.874 39.694,317.119 37.692,315.333 36.446 C 314.462 35.838,313.600 35.232,313.417 35.099 C 313.233 34.966,311.996 34.141,310.667 33.266 C 309.337 32.390,308.159 31.597,308.049 31.503 C 307.938 31.410,307.802 31.333,307.746 31.333 C 307.690 31.333,307.399 31.146,307.098 30.917 C 306.798 30.687,306.471 30.500,306.373 30.500 C 306.275 30.500,306.169 30.439,306.139 30.365 C 306.108 30.291,305.633 29.979,305.083 29.673 C 304.533 29.366,303.971 29.022,303.833 28.908 C 303.579 28.697,302.978 28.347,301.333 27.452 C 300.829 27.178,300.304 26.861,300.167 26.749 C 299.917 26.546,297.761 25.334,294.917 23.799 C 293.079 22.807,284.522 18.537,283.495 18.099 C 282.810 17.807,282.017 17.453,279.987 16.531 C 279.567 16.340,278.817 16.024,278.320 15.829 C 277.074 15.339,276.333 15.022,275.778 14.740 C 275.519 14.608,275.237 14.500,275.151 14.500 C 275.066 14.500,274.678 14.359,274.290 14.186 C 273.901 14.013,273.133 13.707,272.583 13.506 C 272.033 13.305,271.438 13.062,271.261 12.966 C 271.084 12.871,270.747 12.733,270.511 12.659 C 270.276 12.585,269.221 12.215,268.167 11.836 C 265.562 10.900,258.664 8.616,257.500 8.304 C 257.179 8.218,256.692 8.081,256.417 8.000 C 255.778 7.811,254.909 7.563,254.167 7.357 C 253.846 7.268,253.133 7.069,252.583 6.915 C 250.726 6.392,248.872 5.914,247.667 5.646 C 247.254 5.554,246.654 5.410,246.333 5.326 C 245.497 5.107,242.425 4.411,241.250 4.174 C 240.700 4.064,239.950 3.909,239.583 3.831 C 239.217 3.753,238.429 3.603,237.833 3.499 C 237.237 3.394,236.412 3.237,236.000 3.150 C 235.201 2.982,235.185 2.979,233.458 2.689 C 230.561 2.202,227.415 1.756,224.000 1.347 C 218.323 0.668,217.740 0.615,211.000 0.169 C 207.989 -0.030,191.588 -0.013,188.417 0.193 M286.875 79.596 C 306.415 82.920,310.774 109.281,293.315 118.543 C 280.359 125.416,264.765 117.238,262.825 102.553 L 262.622 101.023 261.770 100.836 C 261.300 100.734,260.617 100.580,260.250 100.496 C 259.883 100.411,257.971 100.001,256.000 99.583 C 254.029 99.166,252.117 98.754,251.750 98.667 C 251.383 98.580,250.146 98.314,249.000 98.077 C 247.854 97.839,246.429 97.537,245.833 97.405 C 245.237 97.273,244.188 97.052,243.500 96.913 C 242.813 96.774,241.950 96.589,241.583 96.501 C 241.217 96.414,239.304 96.001,237.333 95.583 C 235.362 95.166,233.450 94.753,233.083 94.665 C 232.717 94.578,231.854 94.392,231.167 94.253 C 230.479 94.115,229.017 93.806,227.917 93.568 C 226.817 93.330,225.279 93.001,224.500 92.836 C 220.323 91.957,219.574 91.793,219.473 91.732 C 219.412 91.695,219.312 91.984,219.251 92.374 C 219.189 92.764,219.072 93.346,218.991 93.667 C 218.910 93.987,218.694 94.962,218.512 95.833 C 218.330 96.704,217.837 99.029,217.417 101.000 C 216.996 102.971,216.509 105.258,216.333 106.083 C 216.157 106.908,215.777 108.671,215.487 110.000 C 215.198 111.329,214.823 113.092,214.655 113.917 C 214.362 115.355,213.857 117.712,213.156 120.917 C 212.976 121.742,212.680 123.129,212.500 124.000 C 212.320 124.871,212.017 126.296,211.828 127.167 C 211.330 129.455,210.685 132.465,210.506 133.333 C 210.344 134.114,209.721 137.002,209.156 139.583 C 208.976 140.408,208.683 141.796,208.506 142.667 C 208.329 143.537,207.913 145.487,207.583 147.000 C 207.252 148.512,206.912 150.087,206.827 150.500 C 206.742 150.912,206.559 151.775,206.420 152.417 C 206.020 154.261,205.836 154.104,208.542 154.233 C 215.918 154.585,226.046 155.884,232.750 157.338 C 233.117 157.418,233.829 157.569,234.333 157.675 C 242.959 159.482,254.159 163.049,261.583 166.355 C 262.408 166.722,263.533 167.221,264.083 167.465 C 265.806 168.227,270.500 170.593,272.500 171.707 C 276.443 173.903,277.586 174.598,281.119 176.942 L 283.988 178.845 285.203 177.820 C 294.709 169.790,307.777 168.430,318.417 174.363 C 319.894 175.187,322.424 176.887,322.833 177.331 C 322.879 177.381,323.429 177.867,324.056 178.410 C 332.499 185.738,335.708 198.958,331.730 210.029 C 329.208 217.049,323.261 223.674,317.004 226.435 C 316.312 226.740,316.305 226.753,316.414 227.414 C 317.816 235.915,316.731 246.534,313.552 255.417 C 309.549 266.605,301.357 278.097,291.326 286.595 C 290.360 287.414,289.273 288.336,288.910 288.644 C 285.543 291.507,279.315 295.721,273.653 298.967 C 272.038 299.893,264.646 303.667,264.448 303.667 C 264.401 303.667,263.813 303.924,263.140 304.239 C 260.763 305.352,254.870 307.640,251.167 308.888 C 244.721 311.059,242.169 311.743,232.333 313.936 C 232.104 313.987,231.542 314.094,231.083 314.172 C 230.625 314.251,229.162 314.503,227.833 314.731 C 211.861 317.478,194.095 317.747,177.676 315.491 C 176.342 315.308,174.875 315.092,174.417 315.011 C 173.958 314.931,173.021 314.774,172.333 314.664 C 170.816 314.420,166.461 313.570,165.083 313.250 C 164.533 313.122,163.371 312.854,162.500 312.654 C 160.743 312.251,156.815 311.232,156.167 311.010 C 155.938 310.932,155.188 310.705,154.500 310.505 C 146.266 308.115,135.424 303.672,128.750 299.954 C 128.017 299.545,127.042 299.005,126.583 298.753 C 105.696 287.283,89.661 268.270,85.256 249.750 C 85.016 248.742,84.749 247.617,84.662 247.250 C 84.444 246.331,84.060 244.061,83.802 242.167 C 83.487 239.851,83.534 230.774,83.873 228.583 C 84.180 226.595,84.313 226.870,82.630 226.001 C 72.585 220.815,66.166 209.239,67.165 198.114 C 69.156 175.949,93.223 163.805,111.872 175.557 C 113.276 176.441,115.525 178.177,115.985 178.731 C 116.343 179.164,116.496 179.092,119.442 177.117 C 122.113 175.327,123.247 174.629,127.083 172.416 C 128.972 171.326,135.281 168.146,137.167 167.333 C 137.854 167.037,138.829 166.608,139.333 166.380 C 142.434 164.977,149.732 162.322,153.667 161.166 C 154.354 160.964,155.104 160.734,155.333 160.656 C 157.000 160.084,164.003 158.332,167.167 157.695 C 167.671 157.593,168.458 157.433,168.917 157.339 C 171.549 156.800,177.506 155.858,180.500 155.508 C 185.116 154.969,187.026 154.805,192.417 154.483 C 194.158 154.379,195.604 154.277,195.628 154.255 C 195.673 154.216,196.398 150.883,197.009 147.917 C 197.178 147.092,197.513 145.517,197.751 144.417 C 198.223 142.244,198.979 138.676,199.500 136.167 C 199.681 135.296,200.017 133.721,200.246 132.667 C 200.476 131.612,200.811 130.037,200.991 129.167 C 201.170 128.296,201.512 126.683,201.749 125.583 C 202.392 122.606,202.808 120.636,203.562 117.000 C 203.799 115.854,204.146 114.242,204.332 113.417 C 204.518 112.592,204.816 111.204,204.994 110.333 C 205.172 109.462,205.512 107.850,205.749 106.750 C 205.986 105.650,206.252 104.412,206.340 104.000 C 206.863 101.537,207.172 100.061,207.475 98.583 C 207.663 97.667,208.015 96.017,208.258 94.917 C 208.501 93.817,208.911 91.904,209.169 90.667 C 210.020 86.594,210.164 85.930,210.477 84.627 C 210.976 82.546,212.011 81.355,213.849 80.745 C 215.129 80.320,216.329 80.486,223.583 82.094 C 225.997 82.629,228.287 83.115,229.417 83.330 C 229.875 83.418,230.963 83.646,231.833 83.836 C 233.615 84.227,236.336 84.807,239.667 85.506 C 240.904 85.766,242.817 86.172,243.917 86.408 C 245.017 86.645,246.667 86.995,247.583 87.187 C 249.906 87.672,250.317 87.759,252.583 88.244 C 253.683 88.479,255.296 88.819,256.167 89.000 C 257.978 89.377,260.865 89.989,263.154 90.480 C 265.008 90.878,264.762 90.977,265.662 89.468 C 269.996 82.194,278.603 78.188,286.875 79.596 M151.917 200.244 C 133.772 202.267,127.045 224.832,141.043 236.718 C 148.141 242.746,159.981 242.952,166.789 237.166 C 166.951 237.028,167.486 236.578,167.978 236.166 C 170.999 233.635,173.311 229.622,174.460 224.917 C 174.822 223.431,174.865 218.235,174.527 216.833 C 172.197 207.193,165.267 201.043,155.750 200.169 C 154.742 200.076,153.879 200.009,153.833 200.020 C 153.787 200.030,152.925 200.131,151.917 200.244 M242.583 200.582 C 225.810 203.559,219.302 223.647,231.241 235.594 C 239.347 243.705,252.333 243.704,260.418 235.590 C 270.242 225.731,267.796 209.389,255.498 202.720 C 251.818 200.724,246.627 199.865,242.583 200.582 M152.369 267.287 C 149.090 268.929,148.355 273.007,150.846 275.732 C 155.972 281.341,167.552 286.872,178.333 288.860 C 178.838 288.953,179.588 289.095,180.000 289.174 C 182.511 289.658,186.259 290.204,189.000 290.485 C 198.891 291.499,207.881 291.204,219.000 289.498 C 234.959 287.051,251.011 278.322,250.998 272.099 C 250.987 266.967,245.622 265.054,241.623 268.756 C 238.612 271.543,235.100 273.643,230.333 275.504 C 228.080 276.384,223.695 277.712,221.583 278.154 C 216.221 279.277,214.168 279.595,208.417 280.195 C 205.714 280.477,194.730 280.477,192.083 280.194 C 175.939 278.472,165.791 274.992,159.028 268.858 C 156.690 266.738,154.499 266.220,152.369 267.287 " stroke="none" fill="#fc4404" fill-rule="evenodd"></path><path id="path2" d="M303.629 170.789 C 304.021 170.824,304.621 170.824,304.963 170.788 C 305.304 170.752,304.983 170.723,304.250 170.724 C 303.517 170.724,303.237 170.754,303.629 170.789 M95.547 171.123 C 95.985 171.157,96.660 171.157,97.047 171.122 C 97.434 171.087,97.075 171.059,96.250 171.059 C 95.425 171.060,95.109 171.088,95.547 171.123 M333.389 200.000 C 333.389 200.688,333.419 200.969,333.455 200.625 C 333.491 200.281,333.491 199.719,333.455 199.375 C 333.419 199.031,333.389 199.313,333.389 200.000 M174.881 220.750 C 174.882 221.208,174.915 221.376,174.953 221.123 C 174.991 220.869,174.990 220.494,174.951 220.289 C 174.911 220.084,174.880 220.292,174.881 220.750 M225.045 221.000 C 225.045 221.412,225.078 221.581,225.118 221.375 C 225.157 221.169,225.157 220.831,225.118 220.625 C 225.078 220.419,225.045 220.588,225.045 221.000 M249.158 276.292 L 248.583 276.917 249.208 276.342 C 249.790 275.808,249.910 275.667,249.783 275.667 C 249.755 275.667,249.474 275.948,249.158 276.292 M196.625 291.118 C 196.831 291.157,197.169 291.157,197.375 291.118 C 197.581 291.078,197.412 291.045,197.000 291.045 C 196.588 291.045,196.419 291.078,196.625 291.118 M203.292 291.118 C 203.498 291.157,203.835 291.157,204.042 291.118 C 204.248 291.078,204.079 291.045,203.667 291.045 C 203.254 291.045,203.085 291.078,203.292 291.118 M195.544 316.953 C 195.797 316.991,196.172 316.990,196.377 316.951 C 196.582 316.911,196.375 316.880,195.917 316.881 C 195.458 316.882,195.291 316.915,195.544 316.953 M204.211 316.953 C 204.464 316.991,204.839 316.990,205.044 316.951 C 205.249 316.911,205.042 316.880,204.583 316.881 C 204.125 316.882,203.957 316.915,204.211 316.953 " stroke="none" fill="#fc885c" fill-rule="evenodd"></path><path id="path3" d="M283.128 79.454 C 283.428 79.491,283.878 79.490,284.128 79.452 C 284.378 79.414,284.133 79.384,283.583 79.385 C 283.033 79.386,282.828 79.417,283.128 79.454 M268.742 85.542 L 268.083 86.250 268.792 85.591 C 269.181 85.229,269.500 84.910,269.500 84.883 C 269.500 84.757,269.355 84.883,268.742 85.542 M304.224 100.083 C 304.224 100.817,304.254 101.096,304.289 100.704 C 304.324 100.312,304.324 99.712,304.288 99.371 C 304.252 99.029,304.223 99.350,304.224 100.083 M298.078 114.875 L 297.083 115.917 298.125 114.922 C 298.698 114.375,299.167 113.906,299.167 113.880 C 299.167 113.757,299.002 113.907,298.078 114.875 M283.042 120.953 C 283.294 120.991,283.706 120.991,283.958 120.953 C 284.210 120.915,284.004 120.883,283.500 120.883 C 282.996 120.883,282.790 120.915,283.042 120.953 M209.875 154.448 C 210.035 154.490,210.298 154.490,210.458 154.448 C 210.619 154.406,210.487 154.372,210.167 154.372 C 209.846 154.372,209.715 154.406,209.875 154.448 M189.208 154.782 C 189.369 154.823,189.631 154.823,189.792 154.782 C 189.952 154.740,189.821 154.705,189.500 154.705 C 189.179 154.705,189.048 154.740,189.208 154.782 M75.575 179.708 L 74.917 180.417 75.625 179.758 C 76.284 179.145,76.410 179.000,76.284 179.000 C 76.257 179.000,75.938 179.319,75.575 179.708 M245.042 200.289 C 245.477 200.324,246.190 200.324,246.625 200.289 C 247.060 200.255,246.704 200.227,245.833 200.227 C 244.963 200.227,244.606 200.255,245.042 200.289 M133.390 220.750 C 133.391 221.483,133.420 221.763,133.456 221.371 C 133.491 220.979,133.490 220.379,133.454 220.037 C 133.419 219.696,133.390 220.017,133.390 220.750 M266.542 220.250 C 266.544 220.617,266.578 220.747,266.618 220.540 C 266.658 220.332,266.656 220.032,266.615 219.873 C 266.573 219.714,266.540 219.883,266.542 220.250 M266.542 221.750 C 266.544 222.117,266.578 222.247,266.618 222.040 C 266.658 221.832,266.656 221.532,266.615 221.373 C 266.573 221.214,266.540 221.383,266.542 221.750 M83.545 233.500 C 83.545 233.912,83.578 234.081,83.618 233.875 C 83.657 233.669,83.657 233.331,83.618 233.125 C 83.578 232.919,83.545 233.088,83.545 233.500 M316.899 235.583 C 316.899 236.867,316.926 237.370,316.957 236.701 C 316.989 236.032,316.989 234.982,316.957 234.368 C 316.925 233.753,316.899 234.300,316.899 235.583 M168.658 235.625 L 168.083 236.250 168.708 235.676 C 169.290 235.141,169.410 235.000,169.283 235.000 C 169.255 235.000,168.974 235.281,168.658 235.625 M83.542 237.583 C 83.544 237.950,83.578 238.080,83.618 237.873 C 83.658 237.666,83.656 237.366,83.615 237.206 C 83.573 237.047,83.540 237.217,83.542 237.583 M245.125 241.789 C 245.515 241.824,246.152 241.824,246.542 241.789 C 246.931 241.754,246.612 241.725,245.833 241.725 C 245.054 241.725,244.735 241.754,245.125 241.789 M149.214 272.083 C 149.216 272.542,149.248 272.709,149.286 272.456 C 149.325 272.203,149.324 271.828,149.284 271.623 C 149.244 271.418,149.213 271.625,149.214 272.083 M251.048 272.083 C 251.049 272.542,251.081 272.709,251.120 272.456 C 251.158 272.203,251.157 271.828,251.117 271.623 C 251.078 271.418,251.046 271.625,251.048 272.083 M102.167 279.719 C 102.167 279.748,102.410 279.991,102.708 280.260 L 103.250 280.750 102.760 280.208 C 102.304 279.703,102.167 279.590,102.167 279.719 M194.542 280.282 C 194.702 280.323,194.965 280.323,195.125 280.282 C 195.285 280.240,195.154 280.205,194.833 280.205 C 194.512 280.205,194.381 280.240,194.542 280.282 M205.375 280.282 C 205.535 280.323,205.798 280.323,205.958 280.282 C 206.119 280.240,205.987 280.205,205.667 280.205 C 205.346 280.205,205.215 280.240,205.375 280.282 M199.034 280.457 C 199.649 280.489,200.699 280.489,201.368 280.457 C 202.036 280.426,201.533 280.399,200.250 280.399 C 198.967 280.399,198.420 280.425,199.034 280.457 M106.083 283.667 C 106.441 284.033,106.772 284.333,106.818 284.333 C 106.863 284.333,106.608 284.033,106.250 283.667 C 105.892 283.300,105.562 283.000,105.516 283.000 C 105.470 283.000,105.725 283.300,106.083 283.667 M195.292 291.118 C 195.498 291.157,195.835 291.157,196.042 291.118 C 196.248 291.078,196.079 291.045,195.667 291.045 C 195.254 291.045,195.085 291.078,195.292 291.118 M204.625 291.118 C 204.831 291.157,205.169 291.157,205.375 291.118 C 205.581 291.078,205.412 291.045,205.000 291.045 C 204.588 291.045,204.419 291.078,204.625 291.118 M189.375 316.615 C 189.535 316.657,189.798 316.657,189.958 316.615 C 190.119 316.573,189.987 316.539,189.667 316.539 C 189.346 316.539,189.215 316.573,189.375 316.615 M210.708 316.615 C 210.869 316.657,211.131 316.657,211.292 316.615 C 211.452 316.573,211.321 316.539,211.000 316.539 C 210.679 316.539,210.548 316.573,210.708 316.615 M198.366 316.958 C 199.346 316.987,200.996 316.987,202.032 316.958 C 203.069 316.929,202.267 316.904,200.250 316.904 C 198.233 316.904,197.385 316.928,198.366 316.958 " stroke="none" fill="#fca484" fill-rule="evenodd"></path><path id="path4" d="M211.740 82.042 L 211.250 82.583 211.792 82.094 C 212.297 81.638,212.410 81.500,212.281 81.500 C 212.252 81.500,212.009 81.744,211.740 82.042 M208.042 154.282 C 208.202 154.323,208.465 154.323,208.625 154.282 C 208.785 154.240,208.654 154.205,208.333 154.205 C 208.012 154.205,207.881 154.240,208.042 154.282 M324.917 179.333 C 325.368 179.792,325.775 180.167,325.821 180.167 C 325.867 180.167,325.535 179.792,325.083 179.333 C 324.632 178.875,324.225 178.500,324.179 178.500 C 324.133 178.500,324.465 178.875,324.917 179.333 M333.372 198.333 C 333.372 198.654,333.406 198.785,333.448 198.625 C 333.490 198.465,333.490 198.202,333.448 198.042 C 333.406 197.881,333.372 198.012,333.372 198.333 M67.053 200.167 C 67.053 200.762,67.084 201.006,67.121 200.708 C 67.158 200.410,67.158 199.923,67.121 199.625 C 67.084 199.327,67.053 199.571,67.053 200.167 M139.324 206.292 L 138.750 206.917 139.375 206.342 C 139.957 205.808,140.077 205.667,139.949 205.667 C 139.922 205.667,139.640 205.948,139.324 206.292 M324.577 221.042 L 323.750 221.917 324.625 221.090 C 325.106 220.635,325.500 220.241,325.500 220.215 C 325.500 220.090,325.346 220.229,324.577 221.042 M76.000 221.250 C 76.311 221.571,76.603 221.833,76.649 221.833 C 76.695 221.833,76.478 221.571,76.167 221.250 C 75.856 220.929,75.564 220.667,75.518 220.667 C 75.472 220.667,75.689 220.929,76.000 221.250 M154.292 266.784 C 154.498 266.824,154.835 266.824,155.042 266.784 C 155.248 266.745,155.079 266.712,154.667 266.712 C 154.254 266.712,154.085 266.745,154.292 266.784 M245.458 266.784 C 245.665 266.824,246.002 266.824,246.208 266.784 C 246.415 266.745,246.246 266.712,245.833 266.712 C 245.421 266.712,245.252 266.745,245.458 266.784 M241.406 268.875 L 240.917 269.417 241.458 268.927 C 241.963 268.471,242.077 268.333,241.948 268.333 C 241.919 268.333,241.675 268.577,241.406 268.875 M103.917 281.667 C 104.275 282.033,104.605 282.333,104.651 282.333 C 104.697 282.333,104.441 282.033,104.083 281.667 C 103.725 281.300,103.395 281.000,103.349 281.000 C 103.303 281.000,103.559 281.300,103.917 281.667 M198.958 291.124 C 199.715 291.155,200.952 291.155,201.708 291.124 C 202.465 291.093,201.846 291.068,200.333 291.068 C 198.821 291.068,198.202 291.093,198.958 291.124 M194.125 316.951 C 194.331 316.991,194.669 316.991,194.875 316.951 C 195.081 316.911,194.912 316.879,194.500 316.879 C 194.088 316.879,193.919 316.911,194.125 316.951 M205.625 316.951 C 205.831 316.991,206.169 316.991,206.375 316.951 C 206.581 316.911,206.412 316.879,206.000 316.879 C 205.588 316.879,205.419 316.911,205.625 316.951 " stroke="none" fill="#fc652d" fill-rule="evenodd"></path></g></svg>